<mxfile host="app.diagrams.net" modified="2022-06-20T15:57:25.881Z" agent="5.0 (Macintosh; Intel Mac OS X 10_15_7) AppleWebKit/537.36 (KHTML, like Gecko) Chrome/91.0.4472.114 Safari/537.36" etag="zdbihO18T50LsaUhnerj" version="20.0.1" type="github">
  <diagram id="QmlQBhIYwJw1mIavMcAx" name="Page-1">
    <mxGraphModel dx="1636" dy="349" grid="1" gridSize="10" guides="1" tooltips="1" connect="1" arrows="1" fold="1" page="1" pageScale="1" pageWidth="850" pageHeight="1100" math="0" shadow="0">
      <root>
        <mxCell id="0" />
        <mxCell id="1" parent="0" />
        <mxCell id="vAlPWBbDWoFCUTtDWhU5-1" value="Customer" style="ellipse;shape=cloud;whiteSpace=wrap;html=1;fillColor=#dae8fc;strokeColor=#6c8ebf;" parent="1" vertex="1">
          <mxGeometry x="365" y="40" width="105" height="70" as="geometry" />
        </mxCell>
        <mxCell id="vAlPWBbDWoFCUTtDWhU5-2" value="Load Balancer" style="rhombus;whiteSpace=wrap;html=1;fillColor=#e1d5e7;strokeColor=#9673a6;" parent="1" vertex="1">
          <mxGeometry x="390" y="180" width="110" height="80" as="geometry" />
        </mxCell>
        <mxCell id="vAlPWBbDWoFCUTtDWhU5-3" value="Search Service" style="rounded=1;whiteSpace=wrap;html=1;fillColor=#fff2cc;strokeColor=#d6b656;" parent="1" vertex="1">
          <mxGeometry x="200" y="340" width="120" height="60" as="geometry" />
        </mxCell>
        <mxCell id="vAlPWBbDWoFCUTtDWhU5-4" value="Search Service" style="rounded=1;whiteSpace=wrap;html=1;fillColor=#fff2cc;strokeColor=#d6b656;" parent="1" vertex="1">
          <mxGeometry x="420" y="340" width="120" height="60" as="geometry" />
        </mxCell>
        <mxCell id="vAlPWBbDWoFCUTtDWhU5-5" value="Search Service" style="rounded=1;whiteSpace=wrap;html=1;fillColor=#fff2cc;strokeColor=#d6b656;" parent="1" vertex="1">
          <mxGeometry x="640" y="330" width="120" height="60" as="geometry" />
        </mxCell>
        <mxCell id="vAlPWBbDWoFCUTtDWhU5-6" value="" style="endArrow=classic;html=1;rounded=0;exitX=0.5;exitY=1;exitDx=0;exitDy=0;entryX=0.5;entryY=0;entryDx=0;entryDy=0;edgeStyle=orthogonalEdgeStyle;" parent="1" source="vAlPWBbDWoFCUTtDWhU5-2" target="vAlPWBbDWoFCUTtDWhU5-3" edge="1">
          <mxGeometry width="50" height="50" relative="1" as="geometry">
            <mxPoint x="380" y="310" as="sourcePoint" />
            <mxPoint x="425" y="290" as="targetPoint" />
          </mxGeometry>
        </mxCell>
        <mxCell id="vAlPWBbDWoFCUTtDWhU5-7" value="" style="endArrow=classic;html=1;rounded=0;exitX=0.5;exitY=1;exitDx=0;exitDy=0;" parent="1" source="vAlPWBbDWoFCUTtDWhU5-2" target="vAlPWBbDWoFCUTtDWhU5-4" edge="1">
          <mxGeometry width="50" height="50" relative="1" as="geometry">
            <mxPoint x="380" y="310" as="sourcePoint" />
            <mxPoint x="430" y="260" as="targetPoint" />
          </mxGeometry>
        </mxCell>
        <mxCell id="vAlPWBbDWoFCUTtDWhU5-8" value="" style="endArrow=classic;html=1;rounded=0;entryX=0.25;entryY=0;entryDx=0;entryDy=0;exitX=0.5;exitY=1;exitDx=0;exitDy=0;edgeStyle=orthogonalEdgeStyle;" parent="1" source="vAlPWBbDWoFCUTtDWhU5-2" target="vAlPWBbDWoFCUTtDWhU5-5" edge="1">
          <mxGeometry width="50" height="50" relative="1" as="geometry">
            <mxPoint x="430" y="260" as="sourcePoint" />
            <mxPoint x="430" y="260" as="targetPoint" />
          </mxGeometry>
        </mxCell>
        <mxCell id="vAlPWBbDWoFCUTtDWhU5-9" value="Elastic Cluster" style="rhombus;whiteSpace=wrap;html=1;fillColor=#e1d5e7;strokeColor=#9673a6;" parent="1" vertex="1">
          <mxGeometry x="420" y="500" width="110" height="80" as="geometry" />
        </mxCell>
        <mxCell id="vAlPWBbDWoFCUTtDWhU5-10" value="" style="outlineConnect=0;dashed=0;verticalLabelPosition=bottom;verticalAlign=top;align=center;html=1;shape=mxgraph.aws3.elasticsearch_service;fillColor=#F58534;gradientColor=none;" parent="1" vertex="1">
          <mxGeometry x="310" y="680" width="67.5" height="81" as="geometry" />
        </mxCell>
        <mxCell id="vAlPWBbDWoFCUTtDWhU5-11" value="" style="outlineConnect=0;dashed=0;verticalLabelPosition=bottom;verticalAlign=top;align=center;html=1;shape=mxgraph.aws3.elasticsearch_service;fillColor=#F58534;gradientColor=none;" parent="1" vertex="1">
          <mxGeometry x="610" y="680" width="67.5" height="81" as="geometry" />
        </mxCell>
        <mxCell id="vAlPWBbDWoFCUTtDWhU5-12" value="" style="outlineConnect=0;dashed=0;verticalLabelPosition=bottom;verticalAlign=top;align=center;html=1;shape=mxgraph.aws3.elasticsearch_service;fillColor=#F58534;gradientColor=none;" parent="1" vertex="1">
          <mxGeometry x="460" y="690" width="67.5" height="81" as="geometry" />
        </mxCell>
        <mxCell id="vAlPWBbDWoFCUTtDWhU5-13" value="" style="endArrow=classic;html=1;rounded=0;exitX=0.5;exitY=1;exitDx=0;exitDy=0;entryX=0.5;entryY=0;entryDx=0;entryDy=0;entryPerimeter=0;" parent="1" source="vAlPWBbDWoFCUTtDWhU5-9" target="vAlPWBbDWoFCUTtDWhU5-10" edge="1">
          <mxGeometry width="50" height="50" relative="1" as="geometry">
            <mxPoint x="380" y="600" as="sourcePoint" />
            <mxPoint x="430" y="550" as="targetPoint" />
          </mxGeometry>
        </mxCell>
        <mxCell id="vAlPWBbDWoFCUTtDWhU5-14" value="" style="endArrow=classic;html=1;rounded=0;exitX=0.5;exitY=1;exitDx=0;exitDy=0;" parent="1" source="vAlPWBbDWoFCUTtDWhU5-9" edge="1">
          <mxGeometry width="50" height="50" relative="1" as="geometry">
            <mxPoint x="485" y="590" as="sourcePoint" />
            <mxPoint x="490" y="680" as="targetPoint" />
          </mxGeometry>
        </mxCell>
        <mxCell id="vAlPWBbDWoFCUTtDWhU5-15" value="" style="endArrow=classic;html=1;rounded=0;entryX=0.5;entryY=0;entryDx=0;entryDy=0;entryPerimeter=0;" parent="1" source="vAlPWBbDWoFCUTtDWhU5-9" target="vAlPWBbDWoFCUTtDWhU5-11" edge="1">
          <mxGeometry width="50" height="50" relative="1" as="geometry">
            <mxPoint x="485" y="590" as="sourcePoint" />
            <mxPoint x="500" y="690" as="targetPoint" />
          </mxGeometry>
        </mxCell>
        <mxCell id="vAlPWBbDWoFCUTtDWhU5-16" value="" style="endArrow=classic;html=1;rounded=0;exitX=0.8;exitY=0.8;exitDx=0;exitDy=0;exitPerimeter=0;entryX=0.5;entryY=0;entryDx=0;entryDy=0;" parent="1" source="vAlPWBbDWoFCUTtDWhU5-1" target="vAlPWBbDWoFCUTtDWhU5-2" edge="1">
          <mxGeometry width="50" height="50" relative="1" as="geometry">
            <mxPoint x="380" y="290" as="sourcePoint" />
            <mxPoint x="430" y="240" as="targetPoint" />
          </mxGeometry>
        </mxCell>
        <mxCell id="vAlPWBbDWoFCUTtDWhU5-17" value="Elastic Search" style="text;html=1;align=center;verticalAlign=middle;resizable=0;points=[];autosize=1;strokeColor=none;fillColor=none;" parent="1" vertex="1">
          <mxGeometry x="300" y="761" width="90" height="20" as="geometry" />
        </mxCell>
        <mxCell id="vAlPWBbDWoFCUTtDWhU5-18" value="Elastic Search" style="text;html=1;align=center;verticalAlign=middle;resizable=0;points=[];autosize=1;strokeColor=none;fillColor=none;" parent="1" vertex="1">
          <mxGeometry x="450" y="771" width="90" height="20" as="geometry" />
        </mxCell>
        <mxCell id="vAlPWBbDWoFCUTtDWhU5-19" value="Elastic Search" style="text;html=1;align=center;verticalAlign=middle;resizable=0;points=[];autosize=1;strokeColor=none;fillColor=none;" parent="1" vertex="1">
          <mxGeometry x="620" y="771" width="90" height="20" as="geometry" />
        </mxCell>
        <mxCell id="vAlPWBbDWoFCUTtDWhU5-20" value="" style="endArrow=classic;html=1;rounded=0;exitX=0.5;exitY=1;exitDx=0;exitDy=0;entryX=0;entryY=0;entryDx=0;entryDy=0;" parent="1" source="vAlPWBbDWoFCUTtDWhU5-3" target="vAlPWBbDWoFCUTtDWhU5-9" edge="1">
          <mxGeometry width="50" height="50" relative="1" as="geometry">
            <mxPoint x="380" y="550" as="sourcePoint" />
            <mxPoint x="430" y="500" as="targetPoint" />
          </mxGeometry>
        </mxCell>
        <mxCell id="vAlPWBbDWoFCUTtDWhU5-21" value="" style="endArrow=classic;html=1;rounded=0;exitX=0.5;exitY=1;exitDx=0;exitDy=0;entryX=0.5;entryY=0;entryDx=0;entryDy=0;" parent="1" source="vAlPWBbDWoFCUTtDWhU5-4" target="vAlPWBbDWoFCUTtDWhU5-9" edge="1">
          <mxGeometry width="50" height="50" relative="1" as="geometry">
            <mxPoint x="270" y="410" as="sourcePoint" />
            <mxPoint x="430" y="550" as="targetPoint" />
          </mxGeometry>
        </mxCell>
        <mxCell id="vAlPWBbDWoFCUTtDWhU5-22" value="" style="endArrow=classic;html=1;rounded=0;exitX=0.45;exitY=0.983;exitDx=0;exitDy=0;exitPerimeter=0;" parent="1" source="vAlPWBbDWoFCUTtDWhU5-5" target="vAlPWBbDWoFCUTtDWhU5-9" edge="1">
          <mxGeometry width="50" height="50" relative="1" as="geometry">
            <mxPoint x="490" y="410" as="sourcePoint" />
            <mxPoint x="485" y="510" as="targetPoint" />
          </mxGeometry>
        </mxCell>
        <mxCell id="vAlPWBbDWoFCUTtDWhU5-23" value="&lt;meta charset=&quot;utf-8&quot;&gt;&lt;p style=&quot;box-sizing: border-box; --tw-shadow:0 0 transparent; --tw-ring-inset:var(--tw-empty, ); --tw-ring-offset-width:0px; --tw-ring-offset-color:#fff; --tw-ring-color:rgba(59,130,246,0.5); --tw-ring-offset-shadow:0 0 transparent; --tw-ring-shadow:0 0 transparent; margin: 0px; padding: 0px; counter-reset: list-1 0 list-2 0 list-3 0 list-4 0 list-5 0 list-6 0 list-7 0 list-8 0 list-9 0; font-family: &amp;quot;Inv Maison Neue&amp;quot;; font-weight: 300; font-size: 14px; color: rgb(34, 37, 43); text-align: center; font-style: normal; font-variant-ligatures: normal; font-variant-caps: normal; letter-spacing: normal; orphans: 2; text-indent: 0px; text-transform: none; widows: 2; word-spacing: 0px; -webkit-text-stroke-width: 0px; background-color: rgb(255, 255, 255); text-decoration-thickness: initial; text-decoration-style: initial; text-decoration-color: initial;&quot; class=&quot;ql-align-center&quot;&gt;- date_from_to as key&lt;/p&gt;&lt;p style=&quot;box-sizing: border-box; --tw-shadow:0 0 transparent; --tw-ring-inset:var(--tw-empty, ); --tw-ring-offset-width:0px; --tw-ring-offset-color:#fff; --tw-ring-color:rgba(59,130,246,0.5); --tw-ring-offset-shadow:0 0 transparent; --tw-ring-shadow:0 0 transparent; margin: 0px; padding: 0px; counter-reset: list-1 0 list-2 0 list-3 0 list-4 0 list-5 0 list-6 0 list-7 0 list-8 0 list-9 0; font-family: &amp;quot;Inv Maison Neue&amp;quot;; font-weight: 300; font-size: 14px; color: rgb(34, 37, 43); text-align: center; font-style: normal; font-variant-ligatures: normal; font-variant-caps: normal; letter-spacing: normal; orphans: 2; text-indent: 0px; text-transform: none; widows: 2; word-spacing: 0px; -webkit-text-stroke-width: 0px; background-color: rgb(255, 255, 255); text-decoration-thickness: initial; text-decoration-style: initial; text-decoration-color: initial;&quot; class=&quot;ql-align-center&quot;&gt;- flight records as value ( in increasing order of fare, flight duration )&lt;/p&gt;" style="text;whiteSpace=wrap;html=1;" parent="1" vertex="1">
          <mxGeometry x="257.5" y="791" width="120" height="40" as="geometry" />
        </mxCell>
        <mxCell id="vAlPWBbDWoFCUTtDWhU5-24" value="New flight service" style="rounded=1;whiteSpace=wrap;html=1;fillColor=#fff2cc;strokeColor=#d6b656;" parent="1" vertex="1">
          <mxGeometry x="-72" y="350" width="120" height="60" as="geometry" />
        </mxCell>
        <mxCell id="vAlPWBbDWoFCUTtDWhU5-25" value="Update Search Index Topic" style="sketch=0;points=[[0,0,0],[0.25,0,0],[0.5,0,0],[0.75,0,0],[1,0,0],[0,1,0],[0.25,1,0],[0.5,1,0],[0.75,1,0],[1,1,0],[0,0.25,0],[0,0.5,0],[0,0.75,0],[1,0.25,0],[1,0.5,0],[1,0.75,0]];outlineConnect=0;fontColor=#232F3E;gradientColor=#945DF2;gradientDirection=north;fillColor=#5A30B5;strokeColor=#ffffff;dashed=0;verticalLabelPosition=bottom;verticalAlign=top;align=center;html=1;fontSize=12;fontStyle=0;aspect=fixed;shape=mxgraph.aws4.resourceIcon;resIcon=mxgraph.aws4.managed_streaming_for_kafka;" parent="1" vertex="1">
          <mxGeometry x="-30" y="693" width="78" height="78" as="geometry" />
        </mxCell>
        <mxCell id="vAlPWBbDWoFCUTtDWhU5-26" value="" style="endArrow=classic;html=1;rounded=0;exitX=0.5;exitY=1;exitDx=0;exitDy=0;entryX=0.25;entryY=0;entryDx=0;entryDy=0;entryPerimeter=0;" parent="1" source="vAlPWBbDWoFCUTtDWhU5-24" target="vAlPWBbDWoFCUTtDWhU5-25" edge="1">
          <mxGeometry width="50" height="50" relative="1" as="geometry">
            <mxPoint x="220" y="650" as="sourcePoint" />
            <mxPoint x="270" y="600" as="targetPoint" />
          </mxGeometry>
        </mxCell>
        <mxCell id="vAlPWBbDWoFCUTtDWhU5-28" value="Update Elastic Search Service" style="rounded=1;whiteSpace=wrap;html=1;fillColor=#fff2cc;strokeColor=#d6b656;" parent="1" vertex="1">
          <mxGeometry x="48" y="880" width="120" height="60" as="geometry" />
        </mxCell>
        <mxCell id="vAlPWBbDWoFCUTtDWhU5-30" value="" style="endArrow=classic;html=1;rounded=0;exitX=1;exitY=0.5;exitDx=0;exitDy=0;edgeStyle=orthogonalEdgeStyle;" parent="1" source="vAlPWBbDWoFCUTtDWhU5-28" target="vAlPWBbDWoFCUTtDWhU5-10" edge="1">
          <mxGeometry width="50" height="50" relative="1" as="geometry">
            <mxPoint x="220" y="750" as="sourcePoint" />
            <mxPoint x="270" y="700" as="targetPoint" />
          </mxGeometry>
        </mxCell>
        <mxCell id="vAlPWBbDWoFCUTtDWhU5-34" value="" style="endArrow=classic;html=1;rounded=0;exitX=1;exitY=0.75;exitDx=0;exitDy=0;edgeStyle=orthogonalEdgeStyle;" parent="1" source="vAlPWBbDWoFCUTtDWhU5-28" target="vAlPWBbDWoFCUTtDWhU5-18" edge="1">
          <mxGeometry width="50" height="50" relative="1" as="geometry">
            <mxPoint x="220" y="820" as="sourcePoint" />
            <mxPoint x="270" y="770" as="targetPoint" />
          </mxGeometry>
        </mxCell>
        <mxCell id="vAlPWBbDWoFCUTtDWhU5-36" value="" style="endArrow=classic;html=1;rounded=0;exitX=0.25;exitY=0;exitDx=0;exitDy=0;entryX=0.5;entryY=1;entryDx=0;entryDy=0;entryPerimeter=0;" parent="1" source="vAlPWBbDWoFCUTtDWhU5-28" target="vAlPWBbDWoFCUTtDWhU5-25" edge="1">
          <mxGeometry width="50" height="50" relative="1" as="geometry">
            <mxPoint x="290" y="820" as="sourcePoint" />
            <mxPoint x="340" y="770" as="targetPoint" />
          </mxGeometry>
        </mxCell>
        <mxCell id="vAlPWBbDWoFCUTtDWhU5-37" value="Listening" style="text;html=1;strokeColor=none;fillColor=none;align=center;verticalAlign=middle;whiteSpace=wrap;rounded=0;" parent="1" vertex="1">
          <mxGeometry x="-12" y="840" width="60" height="30" as="geometry" />
        </mxCell>
        <mxCell id="vAlPWBbDWoFCUTtDWhU5-38" value="" style="endArrow=classic;html=1;rounded=0;exitX=1;exitY=0.75;exitDx=0;exitDy=0;edgeStyle=orthogonalEdgeStyle;" parent="1" source="vAlPWBbDWoFCUTtDWhU5-28" target="vAlPWBbDWoFCUTtDWhU5-19" edge="1">
          <mxGeometry width="50" height="50" relative="1" as="geometry">
            <mxPoint x="290" y="810" as="sourcePoint" />
            <mxPoint x="340" y="760" as="targetPoint" />
          </mxGeometry>
        </mxCell>
      </root>
    </mxGraphModel>
  </diagram>
</mxfile>
